<svg xmlns="http://www.w3.org/2000/svg">
<symbol id="bars" viewBox="0 0 24 24">
    <rect x="3" y="14" width="5" height="8" rx="1" fill="currentColor" stroke="none"/><rect x="10" y="8" width="5" height="14" rx="1" fill="currentColor" stroke="none"/><rect x="17" y="2" width="5" height="20" rx="1" fill="currentColor" stroke="none"/>
  </symbol>
<symbol id="document" viewBox="0 0 24 24">
    <path d="M6 2h8l5 5v14a1 1 0 0 1-1 1H6a1 1 0 0 1-1-1V3a1 1 0 0 1 1-1Z"/><path d="M14 2v5h5M8 12h8M8 16h8"/>
  </symbol>
<symbol id="gear" viewBox="0 0 24 24">
    <path fill="currentColor" stroke="none" fill-rule="evenodd" d="M10 2h4l.8 2.4 2.1.9 2.3-1.1 2.8 2.8-1.1 2.3.9 2.1L24 12v4l-2.2.8-.9 2.1 1.1 2.3-2.8 2.8-2.3-1.1-2.1.9L14 26h-4l-.8-2.2-2.1-.9-2.3 1.1L2 21.2l1.1-2.3-.9-2.1L0 16v-4l2.2-.8.9-2.1L2 6.8 4.8 4l2.3 1.1 2.1-.9ZM12 9a5 5 0 1 0 0 10 5 5 0 0 0 0-10Z" transform="translate(2 .38) scale(.83)"/>
  </symbol>
<symbol id="shield" viewBox="0 0 24 24">
    <path d="M12 2 20 5v6c0 5-3.4 8.5-8 11-4.6-2.5-8-6-8-11V5Z"/>
  </symbol>
<symbol id="network" viewBox="0 0 24 24">
    <path d="M12 12V3m0 9 8-6m-8 6 6 8m-6-8-8 5"/><g fill="currentColor" stroke="none"><circle cx="12" cy="12" r="3.2"/><circle cx="12" cy="3" r="2.4"/><circle cx="20" cy="6" r="2.2"/><circle cx="18" cy="20" r="3"/><circle cx="4" cy="17" r="2.5"/></g>
  </symbol>
<symbol id="chat" viewBox="0 0 24 24"><path d="M4 3h16a1 1 0 0 1 1 1v13H9l-6 5V4a1 1 0 0 1 1-1Z"/><path d="M7 9h.01M12 9h.01M17 9h.01"/></symbol>
<symbol id="database" viewBox="0 0 24 24"><ellipse cx="12" cy="5" rx="8" ry="3"/><path d="M4 5v14c0 4 16 4 16 0V5M4 12c0 4 16 4 16 0"/></symbol>
<symbol id="team" viewBox="0 0 24 24"><circle cx="12" cy="7" r="3"/><path d="M6 22v-6a6 6 0 0 1 12 0v6M4 6a2 2 0 1 0 0 4M20 6a2 2 0 1 1 0 4M1 20v-5a3 3 0 0 1 3-3m19 8v-5a3 3 0 0 0-3-3"/></symbol>
<symbol id="search" viewBox="0 0 24 24"><circle cx="10.5" cy="10.5" r="6.5"/><path d="m16 16 5 5"/></symbol>
<symbol id="radar" viewBox="0 0 24 24">
    <circle cx="11" cy="13" r="9"/><circle cx="11" cy="13" r="5"/><circle cx="11" cy="13" r="1" fill="currentColor" stroke="none"/>
    <path d="m11 13 10-10m-5 0h5v5"/>
  </symbol>
<symbol id="cap" viewBox="0 0 24 24"><path d="m2 8 10-5 10 5-10 5Z" fill="currentColor"/><path d="M5 11v7c4 3 10 3 14 0v-7M22 8v9"/></symbol>
<symbol id="flask" viewBox="0 0 24 24"><path d="M9 2h6M10 2v7L4 20q-1 2 2 2h12q3 0 2-2L14 9V2M8 14h8"/><circle cx="10" cy="17" r="1"/><circle cx="14" cy="19" r="1"/></symbol>
<symbol id="bulb" viewBox="0 0 24 24"><path d="M9 19h6M9 22h6M8 15a8 8 0 1 1 8 0l-1 4H9ZM12 10v9"/></symbol>
<symbol id="building" viewBox="0 0 24 24"><path d="M2 22h20M4 22V7h5M9 22V2h8v20M17 10h4v12M12 6h2M12 10h2M12 14h2M12 18h2M6 10v1M6 15v1M19 14v1M19 18v1"/></symbol>
<symbol id="robot" viewBox="0 0 24 24"><rect x="4" y="6" width="16" height="13" rx="4" fill="currentColor" stroke="none"/><path d="M12 2v4M1 10v6M23 10v6M8 22h8"/><path d="M8 11h.01M16 11h.01M9 15h6" stroke="white" stroke-width="2.5"/></symbol>
<symbol id="grid" viewBox="0 0 24 24"><rect x="2" y="2" width="8" height="8" rx="1"/><rect x="14" y="2" width="8" height="8" rx="1"/><rect x="2" y="14" width="8" height="8" rx="1"/><rect x="14" y="14" width="8" height="8" rx="1"/></symbol>
<symbol id="institution" viewBox="0 0 24 24"><path d="m2 8 10-6 10 6ZM3 21h18M5 11v7M10 11v7M15 11v7M20 11v7M2 18h20"/></symbol>
<symbol id="people" viewBox="0 0 24 24"><circle cx="12" cy="6" r="4" fill="currentColor" stroke="none"/><circle cx="4" cy="8" r="3" fill="currentColor" stroke="none"/><circle cx="20" cy="8" r="3" fill="currentColor" stroke="none"/><path d="M6 22v-6a6 6 0 0 1 12 0v6ZM1 21v-6q0-3 3-3M23 21v-6q0-3-3-3" fill="currentColor"/></symbol>
</svg>
