<svg xmlns="http://www.w3.org/2000/svg" viewBox="0 0 24 24">
  <symbol id="radar" viewBox="0 0 24 24">
    <circle cx="11" cy="13" r="9"/><circle cx="11" cy="13" r="5"/><circle cx="11" cy="13" r="1" fill="currentColor" stroke="none"/>
    <path d="m11 13 10-10m-5 0h5v5"/>
  </symbol>
  <symbol id="dados" viewBox="0 0 24 24">
    <rect x="3" y="14" width="5" height="8" rx="1" fill="currentColor" stroke="none"/><rect x="10" y="8" width="5" height="14" rx="1" fill="currentColor" stroke="none"/><rect x="17" y="2" width="5" height="20" rx="1" fill="currentColor" stroke="none"/>
  </symbol>
  <symbol id="pesquisas" viewBox="0 0 24 24">
    <path d="M6 2h8l5 5v14a1 1 0 0 1-1 1H6a1 1 0 0 1-1-1V3a1 1 0 0 1 1-1Z"/><path d="M14 2v5h5M8 12h8M8 16h8"/>
  </symbol>
  <symbol id="avaliacoes" viewBox="0 0 24 24">
    <path fill="currentColor" stroke="none" fill-rule="evenodd" d="M10 2h4l.8 2.4 2.1.9 2.3-1.1 2.8 2.8-1.1 2.3.9 2.1L24 12v4l-2.2.8-.9 2.1 1.1 2.3-2.8 2.8-2.3-1.1-2.1.9L14 26h-4l-.8-2.2-2.1-.9-2.3 1.1L2 21.2l1.1-2.3-.9-2.1L0 16v-4l2.2-.8.9-2.1L2 6.8 4.8 4l2.3 1.1 2.1-.9ZM12 9a5 5 0 1 0 0 10 5 5 0 0 0 0-10Z" transform="translate(2 .38) scale(.83)"/>
  </symbol>
  <symbol id="regulacao" viewBox="0 0 24 24">
    <path d="M12 2 20 5v6c0 5-3.4 8.5-8 11-4.6-2.5-8-6-8-11V5Z"/>
  </symbol>
  <symbol id="casos" viewBox="0 0 24 24">
    <path d="M12 12V3m0 9 8-6m-8 6 6 8m-6-8-8 5"/><g fill="currentColor" stroke="none"><circle cx="12" cy="12" r="3.2"/><circle cx="12" cy="3" r="2.4"/><circle cx="20" cy="6" r="2.2"/><circle cx="18" cy="20" r="3"/><circle cx="4" cy="17" r="2.5"/></g>
  </symbol>
  <symbol id="publicacoes" viewBox="0 0 24 24">
    <path d="M12 21c-2.5-1.5-5.5-2-9-1V4c3.5-1 6.5-.5 9 1Zm0 0c2.5-1.5 5.5-2 9-1V4c-3.5-1-6.5-.5-9 1Z"/><path d="M12 5v16"/>
  </symbol>
</svg>
