<svg xmlns="http://www.w3.org/2000/svg" width="1400" height="900" viewBox="0 0 1400 900">
  <defs>
    <linearGradient id="bg" x1="0" y1="0" x2="1" y2="1"><stop offset="0" stop-color="#E6FAFA"/><stop offset="1" stop-color="#FFFFFF"/></linearGradient>
    <linearGradient id="teal" x1="0" y1="0" x2="1" y2="1"><stop offset="0" stop-color="#009A9A"/><stop offset="1" stop-color="#003B71"/></linearGradient>
    <filter id="shadow" x="-20%" y="-20%" width="140%" height="140%"><feDropShadow dx="0" dy="10" stdDeviation="12" flood-color="#000" flood-opacity="0.16"/></filter>
  </defs>
  <rect width="1400" height="900" rx="36" fill="url(#bg)"/>
  <text x="70" y="95" font-family="Arial, Helvetica, sans-serif" font-size="46" font-weight="800" fill="#003B71">Módulo 11 – Agentes de IA, Skills e Automação Inteligente</text>
  <text x="70" y="140" font-family="Arial, Helvetica, sans-serif" font-size="24" fill="#405060">Do prompt isolado ao workflow com ferramentas, dados, logs e supervisão humana</text>
  <g filter="url(#shadow)">
    <rect x="525" y="270" width="350" height="170" rx="26" fill="url(#teal)"/>
    <text x="700" y="335" text-anchor="middle" font-family="Arial, Helvetica, sans-serif" font-size="34" font-weight="800" fill="#fff">Agente de IA</text>
    <text x="700" y="377" text-anchor="middle" font-family="Arial, Helvetica, sans-serif" font-size="20" fill="#E6FAFA">instruções + ferramentas + limites</text>
  </g>
  <g font-family="Arial, Helvetica, sans-serif" font-size="22" font-weight="700" fill="#003B71">
    <rect x="80" y="240" width="280" height="100" rx="22" fill="#fff" stroke="#009A9A" stroke-width="4" filter="url(#shadow)"/><text x="220" y="300" text-anchor="middle">Gatilhos</text>
    <rect x="80" y="390" width="280" height="100" rx="22" fill="#fff" stroke="#009A9A" stroke-width="4" filter="url(#shadow)"/><text x="220" y="450" text-anchor="middle">Skills</text>
    <rect x="80" y="540" width="280" height="100" rx="22" fill="#fff" stroke="#009A9A" stroke-width="4" filter="url(#shadow)"/><text x="220" y="600" text-anchor="middle">Workflows</text>
    <rect x="1040" y="240" width="280" height="100" rx="22" fill="#fff" stroke="#6046A6" stroke-width="4" filter="url(#shadow)"/><text x="1180" y="300" text-anchor="middle">APIs e Webhooks</text>
    <rect x="1040" y="390" width="280" height="100" rx="22" fill="#fff" stroke="#6046A6" stroke-width="4" filter="url(#shadow)"/><text x="1180" y="450" text-anchor="middle">RAG e Memória</text>
    <rect x="1040" y="540" width="280" height="100" rx="22" fill="#fff" stroke="#6046A6" stroke-width="4" filter="url(#shadow)"/><text x="1180" y="600" text-anchor="middle">Logs e Guardrails</text>
  </g>
  <g stroke="#003B71" stroke-width="5" fill="none" marker-end="url(#arrow)">
    <defs><marker id="arrow" markerWidth="10" markerHeight="10" refX="8" refY="3" orient="auto"><path d="M0,0 L0,6 L9,3 z" fill="#003B71"/></marker></defs>
    <path d="M360 290 C440 290 450 330 525 340"/>
    <path d="M360 440 C440 440 450 380 525 370"/>
    <path d="M360 590 C455 565 470 430 525 405"/>
    <path d="M875 340 C950 330 960 290 1040 290"/>
    <path d="M875 370 C950 380 960 440 1040 440"/>
    <path d="M875 405 C945 450 960 570 1040 590"/>
  </g>
  <rect x="250" y="740" width="900" height="70" rx="24" fill="#003B71"/>
  <text x="700" y="784" text-anchor="middle" font-family="Arial, Helvetica, sans-serif" font-size="25" font-weight="700" fill="#fff">Automatizar com segurança: baixo custo, rastreabilidade e humano no controle</text>
</svg>