<svg xmlns="http://www.w3.org/2000/svg" viewBox="0 0 1200 430">
<rect width="1200" height="430" fill="#f6fbff"/>
<text x="50" y="60" font-family="Arial" font-size="34" font-weight="800" fill="#003a70">Primeiro workflow no n8n</text>
<g font-family="Arial" text-anchor="middle" font-size="17" font-weight="700">
<g transform="translate(115 215)"><rect x="-70" y="-50" width="140" height="100" rx="18" fill="#fff" stroke="#0b5aa6" stroke-width="3"/><text y="-8" fill="#003a70">Manual</text><text y="20" fill="#003a70">Trigger</text></g>
<g transform="translate(305 215)"><rect x="-70" y="-50" width="140" height="100" rx="18" fill="#fff" stroke="#009a9a" stroke-width="3"/><text y="-8" fill="#003a70">Edit</text><text y="20" fill="#003a70">Fields</text></g>
<g transform="translate(495 215)"><rect x="-70" y="-50" width="140" height="100" rx="18" fill="#fff" stroke="#f2a20c" stroke-width="3"/><text y="-8" fill="#003a70">IF</text><text y="20" fill="#003a70">validação</text></g>
<g transform="translate(685 215)"><rect x="-70" y="-50" width="140" height="100" rx="18" fill="#fff" stroke="#3aa655" stroke-width="3"/><text y="-8" fill="#003a70">Google</text><text y="20" fill="#003a70">Sheets</text></g>
<g transform="translate(875 215)"><rect x="-70" y="-50" width="140" height="100" rx="18" fill="#fff" stroke="#6046a6" stroke-width="3"/><text y="-8" fill="#003a70">Log</text><text y="20" fill="#003a70">execução</text></g>
<g transform="translate(1065 215)"><rect x="-70" y="-50" width="140" height="100" rx="18" fill="#fff" stroke="#c8102e" stroke-width="3"/><text y="-8" fill="#003a70">Resultado</text><text y="20" fill="#003a70">pendente/válido</text></g>
</g>
<path d="M185 215H235M375 215H425M565 215H615M755 215H805M945 215H995" stroke="#0b5aa6" stroke-width="5" stroke-linecap="round"/>
<text x="50" y="360" font-family="Arial" font-size="18" fill="#334">Objetivo didático: entender gatilho, dados de teste, condição, registro e evidência da execução antes de usar IA.</text>
</svg>