<svg xmlns="http://www.w3.org/2000/svg" viewBox="0 0 1140 430" role="img"><title>Módulo 14: Engenharia de Dados para IA</title><rect width="1140" height="430" rx="28" fill="#F4FAFD"/><rect x="28" y="28" width="1084" height="142" rx="24" fill="#fff" stroke="#CFE2EF"/><circle cx="100" cy="99" r="48" fill="#00796B"/><text x="100" y="114" text-anchor="middle" font-family="Arial" font-size="42" font-weight="800" fill="#fff">14</text><text x="170" y="86" font-family="Arial" font-size="34" font-weight="800" fill="#003B71">Módulo 14</text><text x="170" y="123" font-family="Arial" font-size="25" font-weight="700" fill="#00796B">Engenharia de Dados para IA</text><rect x="40" y="210" width="235" height="155" rx="18" fill="#fff" stroke="#CFE2EF"/><circle cx="74" cy="245" r="18" fill="#00796B"/><text x="74" y="251" text-anchor="middle" font-family="Arial" font-size="16" font-weight="700" fill="#fff">1</text><text x="106" y="246" font-family="Arial" font-size="18" font-weight="700" fill="#003B71">Fontes</text><path d="M82 306 H235" stroke="#00796B" stroke-width="7" stroke-linecap="round"/><path d="M82 330 H190" stroke="#9BC6DB" stroke-width="7" stroke-linecap="round"/><rect x="315" y="210" width="235" height="155" rx="18" fill="#fff" stroke="#CFE2EF"/><circle cx="349" cy="245" r="18" fill="#00796B"/><text x="349" y="251" text-anchor="middle" font-family="Arial" font-size="16" font-weight="700" fill="#fff">2</text><text x="381" y="246" font-family="Arial" font-size="18" font-weight="700" fill="#003B71">Pipelines</text><path d="M357 306 H510" stroke="#00796B" stroke-width="7" stroke-linecap="round"/><path d="M357 330 H465" stroke="#9BC6DB" stroke-width="7" stroke-linecap="round"/><rect x="590" y="210" width="235" height="155" rx="18" fill="#fff" stroke="#CFE2EF"/><circle cx="624" cy="245" r="18" fill="#00796B"/><text x="624" y="251" text-anchor="middle" font-family="Arial" font-size="16" font-weight="700" fill="#fff">3</text><text x="656" y="246" font-family="Arial" font-size="18" font-weight="700" fill="#003B71">Qualidade</text><path d="M632 306 H785" stroke="#00796B" stroke-width="7" stroke-linecap="round"/><path d="M632 330 H740" stroke="#9BC6DB" stroke-width="7" stroke-linecap="round"/><rect x="865" y="210" width="235" height="155" rx="18" fill="#fff" stroke="#CFE2EF"/><circle cx="899" cy="245" r="18" fill="#00796B"/><text x="899" y="251" text-anchor="middle" font-family="Arial" font-size="16" font-weight="700" fill="#fff">4</text><text x="931" y="246" font-family="Arial" font-size="18" font-weight="700" fill="#003B71">Governança</text><path d="M907 306 H1060" stroke="#00796B" stroke-width="7" stroke-linecap="round"/><path d="M907 330 H1015" stroke="#9BC6DB" stroke-width="7" stroke-linecap="round"/><path d="M92 392 H1048" stroke="#00796B" stroke-width="12" stroke-linecap="round"/><text x="570" y="405" text-anchor="middle" font-family="Arial" font-size="18" font-weight="700" fill="#003B71">aprenda • pratique • documente • aplique com responsabilidade</text></svg>