<svg xmlns="http://www.w3.org/2000/svg" viewBox="0 0 1200 500" role="img" aria-label="Ilustração didática do módulo 4"><rect width="1200" height="500" fill="#FFF7E2"/><circle cx="180" cy="230" r="128" fill="#D98B00" opacity=".12"/><circle cx="180" cy="230" r="94" fill="#fff" stroke="#D98B00" stroke-width="7"/><text x="180" y="216" text-anchor="middle" font-family="Arial,Helvetica,sans-serif" font-size="32" font-weight="700" fill="#D98B00">MÓDULO</text><text x="180" y="286" text-anchor="middle" font-family="Arial,Helvetica,sans-serif" font-size="78" font-weight="800" fill="#D98B00">4</text><text x="390" y="105" font-family="Arial,Helvetica,sans-serif" font-size="41" font-weight="800" fill="#003B71">Dos dados ao resultado</text><text x="390" y="153" font-family="Arial,Helvetica,sans-serif" font-size="19" fill="#38505F">Modelos aprendem padrões, cometem erros e precisam ser avaliados.</text><path d="M286 230C350 230 350 308 414 308" fill="none" stroke="#D98B00" stroke-width="5" stroke-linecap="round"/><rect x="425" y="245" width="216" height="126" rx="22" fill="#fff" stroke="#D98B00" stroke-width="3"/><circle cx="533" cy="276" r="13" fill="#D98B00"/><text text-anchor="middle" font-family="Arial,Helvetica,sans-serif" font-size="21" font-weight="700" fill="#173247"><tspan x="533" y="314">Dados</tspan></text><path d="M471 349h124" stroke="#D98B00" stroke-width="5" stroke-linecap="round" opacity=".28"/><rect x="670" y="245" width="216" height="126" rx="22" fill="#fff" stroke="#D98B00" stroke-width="3"/><circle cx="778" cy="276" r="13" fill="#D98B00"/><text text-anchor="middle" font-family="Arial,Helvetica,sans-serif" font-size="21" font-weight="700" fill="#173247"><tspan x="778" y="314">Treinamento</tspan></text><path d="M716 349h124" stroke="#D98B00" stroke-width="5" stroke-linecap="round" opacity=".28"/><rect x="915" y="245" width="216" height="126" rx="22" fill="#fff" stroke="#D98B00" stroke-width="3"/><circle cx="1023" cy="276" r="13" fill="#D98B00"/><text text-anchor="middle" font-family="Arial,Helvetica,sans-serif" font-size="21" font-weight="700" fill="#173247"><tspan x="1023" y="314">Avaliação</tspan></text><path d="M961 349h124" stroke="#D98B00" stroke-width="5" stroke-linecap="round" opacity=".28"/><circle cx="1070" cy="86" r="9" fill="#D98B00"/><circle cx="1110" cy="118" r="6" fill="#D98B00" opacity=".55"/><path d="M1040 420h96M1088 372v96" stroke="#D98B00" stroke-width="8" stroke-linecap="round" opacity=".28"/><text x="1000" y="474" font-family="Arial,Helvetica,sans-serif" font-size="22" font-weight="800"><tspan fill="#111">unesp</tspan><tspan fill="#20549A">.IA</tspan></text></svg>